<svg width="20" height="20" viewBox="0 0 20 20" fill="none" xmlns="http://www.w3.org/2000/svg">
<g clip-path="url(#clip0_251_23)">
<path d="M17.5002 0H8.3335C7.67046 0 7.03457 0.263392 6.56573 0.732233C6.09689 1.20107 5.8335 1.83696 5.8335 2.5V6.66667C5.8335 6.88768 5.92129 7.09964 6.07757 7.25592C6.23385 7.4122 6.44582 7.5 6.66683 7.5C6.88784 7.5 7.0998 7.4122 7.25609 7.25592C7.41237 7.09964 7.50016 6.88768 7.50016 6.66667V2.5C7.50016 2.27899 7.58796 2.06702 7.74424 1.91074C7.90052 1.75446 8.11248 1.66667 8.3335 1.66667H17.5002C17.7212 1.66667 17.9331 1.75446 18.0894 1.91074C18.2457 2.06702 18.3335 2.27899 18.3335 2.5V17.5C18.3335 17.721 18.2457 17.933 18.0894 18.0893C17.9331 18.2455 17.7212 18.3333 17.5002 18.3333H8.3335C8.11248 18.3333 7.90052 18.2455 7.74424 18.0893C7.58796 17.933 7.50016 17.721 7.50016 17.5V13.3333C7.50016 13.1123 7.41237 12.9004 7.25609 12.7441C7.0998 12.5878 6.88784 12.5 6.66683 12.5C6.44582 12.5 6.23385 12.5878 6.07757 12.7441C5.92129 12.9004 5.8335 13.1123 5.8335 13.3333V17.5C5.8335 18.163 6.09689 18.7989 6.56573 19.2678C7.03457 19.7366 7.67046 20 8.3335 20H17.5002C18.1632 20 18.7991 19.7366 19.2679 19.2678C19.7368 18.7989 20.0002 18.163 20.0002 17.5V2.5C20.0002 1.83696 19.7368 1.20107 19.2679 0.732233C18.7991 0.263392 18.1632 0 17.5002 0V0Z" fill="black"/>
<path d="M0.833333 10.8333H11.3217L10.2442 11.9108C10.1646 11.9877 10.1011 12.0796 10.0574 12.1813C10.0137 12.283 9.99075 12.3923 9.98979 12.503C9.98883 12.6136 10.0099 12.7234 10.0518 12.8258C10.0937 12.9282 10.1556 13.0212 10.2338 13.0995C10.3121 13.1777 10.4051 13.2396 10.5075 13.2815C10.61 13.3234 10.7197 13.3445 10.8303 13.3435C10.941 13.3426 11.0503 13.3196 11.152 13.2759C11.2537 13.2322 11.3456 13.1687 11.4225 13.0891L13.9225 10.5891C14.0755 10.4312 14.1611 10.2199 14.1611 9.99998C14.1611 9.78005 14.0755 9.56876 13.9225 9.41081L11.4225 6.91082C11.2653 6.75902 11.0548 6.67503 10.8363 6.67693C10.6178 6.67883 10.4088 6.76647 10.2543 6.92097C10.0998 7.07548 10.0122 7.28449 10.0103 7.50299C10.0084 7.72148 10.0924 7.93198 10.2442 8.08915L11.3217 9.16665H0.833333C0.61232 9.16665 0.400358 9.25445 0.244078 9.41073C0.0877974 9.567 0 9.77897 0 9.99998C0 10.221 0.0877974 10.433 0.244078 10.5892C0.400358 10.7455 0.61232 10.8333 0.833333 10.8333V10.8333Z" fill="black"/>
</g>
<defs>
<clipPath id="clip0_251_23">
<rect width="20" height="20" fill="white"/>
</clipPath>
</defs>
</svg>
