<svg width="16" height="18" viewBox="0 0 16 18" fill="none" xmlns="http://www.w3.org/2000/svg">
<path d="M10.5438 8.34633C11.6788 7.50634 12.418 6.14692 12.418 4.61544C12.418 2.07052 10.3775 6.10352e-05 7.86951 6.10352e-05C5.36146 6.10352e-05 3.32101 2.07052 3.32101 4.61544C3.32101 6.14692 4.06013 7.50634 5.19523 8.34633C2.3736 9.44197 0.364502 12.2179 0.364502 15.4616C0.364502 16.8613 1.48674 18.0001 2.86617 18.0001H12.8728C14.2523 18.0001 15.3745 16.8613 15.3745 15.4616C15.3745 12.2179 13.3654 9.44197 10.5438 8.34633ZM4.68557 4.61544C4.68557 2.83401 6.11389 1.38469 7.86951 1.38469C9.62512 1.38469 11.0534 2.83401 11.0534 4.61544C11.0534 6.39688 9.62512 7.84623 7.86951 7.84623C6.11389 7.84623 4.68557 6.39688 4.68557 4.61544ZM12.8728 16.6154H2.86617C2.23917 16.6154 1.72906 16.0978 1.72906 15.4616C1.72906 12.0259 4.48362 9.23079 7.86954 9.23079C11.2555 9.23079 14.01 12.0259 14.01 15.4616C14.01 16.0978 13.4999 16.6154 12.8728 16.6154Z" fill="black"/>
</svg>
