<svg width="18" height="18" viewBox="0 0 18 18" fill="none" xmlns="http://www.w3.org/2000/svg">
<path d="M8.70833 0C6.98599 0 5.30232 0.510734 3.87024 1.46762C2.43817 2.4245 1.322 3.78456 0.662886 5.37579C0.00377321 6.96703 -0.168681 8.71799 0.167332 10.4072C0.503345 12.0965 1.33273 13.6482 2.55061 14.866C3.7685 16.0839 5.32017 16.9133 7.00942 17.2493C8.69867 17.5853 10.4496 17.4129 12.0409 16.7538C13.6321 16.0947 14.9922 14.9785 15.949 13.5464C16.9059 12.1143 17.4167 10.4307 17.4167 8.70833C17.4139 6.39957 16.4956 4.18616 14.863 2.55362C13.2305 0.92108 11.0171 0.0027237 8.70833 0V0ZM8.70833 15.8333C7.29914 15.8333 5.9216 15.4154 4.7499 14.6325C3.5782 13.8496 2.66497 12.7369 2.12569 11.4349C1.58642 10.133 1.44532 8.70042 1.72024 7.31831C1.99516 5.9362 2.67375 4.66664 3.6702 3.67019C4.66665 2.67375 5.9362 1.99516 7.31832 1.72024C8.70043 1.44532 10.133 1.58642 11.435 2.12569C12.7369 2.66496 13.8496 3.57819 14.6326 4.74989C15.4155 5.92159 15.8333 7.29914 15.8333 8.70833C15.8312 10.5974 15.0799 12.4084 13.7442 13.7441C12.4084 15.0799 10.5974 15.8312 8.70833 15.8333V15.8333Z" fill="#D6AD58"/>
<path d="M12.1315 6.14571L7.94038 9.98767L6.10134 8.14862C6.02831 8.07301 5.94095 8.0127 5.84437 7.97121C5.74778 7.92972 5.6439 7.90788 5.53878 7.90697C5.43366 7.90605 5.32942 7.92608 5.23212 7.96589C5.13483 8.00569 5.04644 8.06448 4.97211 8.13881C4.89778 8.21314 4.83899 8.30153 4.79919 8.39883C4.75938 8.49612 4.73935 8.60037 4.74026 8.70548C4.74118 8.8106 4.76302 8.91448 4.80451 9.01107C4.846 9.10766 4.90631 9.19501 4.98192 9.26804L7.35692 11.643C7.50119 11.7873 7.6956 11.8703 7.89959 11.8748C8.10358 11.8792 8.30141 11.8047 8.45179 11.6668L13.2018 7.31262C13.3565 7.17069 13.4486 6.97309 13.4576 6.76331C13.4667 6.55353 13.392 6.34874 13.2501 6.194C13.1082 6.03925 12.9106 5.94723 12.7008 5.93818C12.491 5.92912 12.2862 6.00377 12.1315 6.14571V6.14571Z" fill="#D6AD58"/>
</svg>
