<svg width="19" height="19" viewBox="0 0 19 19" fill="none" xmlns="http://www.w3.org/2000/svg">
<g clip-path="url(#clip0_207_728)">
<path d="M9.50008 0.791733C7.77774 0.791733 6.09407 1.30247 4.66199 2.25935C3.22992 3.21623 2.11375 4.57629 1.45463 6.16753C0.795521 7.75877 0.623067 9.50972 0.95908 11.199C1.29509 12.8882 2.12448 14.4399 3.34236 15.6578C4.56024 16.8757 6.11192 17.705 7.80117 18.0411C9.49042 18.3771 11.2414 18.2046 12.8326 17.5455C14.4239 16.8864 15.7839 15.7702 16.7408 14.3381C17.6977 12.9061 18.2084 11.2224 18.2084 9.50006C18.2057 7.1913 17.2873 4.97789 15.6548 3.34535C14.0223 1.71281 11.8088 0.794456 9.50008 0.791733ZM9.50008 16.6251C8.09089 16.6251 6.71335 16.2072 5.54165 15.4243C4.36995 14.6414 3.45672 13.5286 2.91744 12.2267C2.37817 10.9248 2.23707 9.49216 2.51199 8.11004C2.78691 6.72793 3.4655 5.45838 4.46195 4.46193C5.4584 3.46548 6.72795 2.78689 8.11006 2.51197C9.49218 2.23705 10.9248 2.37815 12.2267 2.91742C13.5286 3.4567 14.6414 4.36993 15.4243 5.54163C16.2072 6.71332 16.6251 8.09087 16.6251 9.50006C16.623 11.3891 15.8716 13.2001 14.5359 14.5359C13.2002 15.8716 11.3891 16.623 9.50008 16.6251Z" fill="black"/>
<path d="M12.9232 6.93744L8.73213 10.7794L6.89309 8.94036C6.82006 8.86474 6.7327 8.80443 6.63611 8.76294C6.53953 8.72145 6.43565 8.69961 6.33053 8.6987C6.22541 8.69779 6.12116 8.71782 6.02387 8.75762C5.92658 8.79743 5.83819 8.85621 5.76386 8.93054C5.68952 9.00488 5.63074 9.09327 5.59093 9.19056C5.55113 9.28785 5.5311 9.3921 5.53201 9.49722C5.53293 9.60233 5.55476 9.70621 5.59626 9.8028C5.63775 9.89939 5.69806 9.98674 5.77367 10.0598L8.14867 12.4348C8.29294 12.5791 8.48734 12.6621 8.69134 12.6665C8.89533 12.6709 9.09315 12.5964 9.24354 12.4585L13.9935 8.10436C14.1483 7.96242 14.2403 7.76483 14.2494 7.55504C14.2584 7.34526 14.1838 7.14047 14.0418 6.98573C13.8999 6.83099 13.7023 6.73897 13.4925 6.72991C13.2827 6.72085 13.078 6.7955 12.9232 6.93744V6.93744Z" fill="black"/>
</g>
<defs>
<clipPath id="clip0_207_728">
<rect width="19" height="19" fill="white"/>
</clipPath>
</defs>
</svg>
