<svg width="23" height="24" viewBox="0 0 23 24" fill="none" xmlns="http://www.w3.org/2000/svg">
<path d="M11.5002 1.31045C9.41522 1.31045 7.3771 1.92871 5.64353 3.08704C3.90996 4.24537 2.55881 5.89175 1.76094 7.81799C0.963064 9.74423 0.754304 11.8638 1.16106 13.9087C1.56781 15.9536 2.5718 17.8319 4.04608 19.3062C5.52036 20.7805 7.39871 21.7845 9.44359 22.1912C11.4885 22.598 13.608 22.3892 15.5343 21.5913C17.4605 20.7935 19.1069 19.4423 20.2652 17.7087C21.4236 15.9752 22.0418 13.9371 22.0418 11.8521C22.0385 9.0573 20.9268 6.3779 18.9506 4.40167C16.9744 2.42544 14.295 1.31374 11.5002 1.31045V1.31045ZM11.5002 20.4771C9.7943 20.4771 8.12675 19.9713 6.70837 19.0235C5.29 18.0758 4.18451 16.7288 3.53171 15.1528C2.8789 13.5767 2.7081 11.8425 3.04089 10.1695C3.37369 8.49637 4.19514 6.95954 5.40137 5.75332C6.6076 4.54709 8.14443 3.72564 9.81751 3.39284C11.4906 3.06004 13.2248 3.23085 14.8008 3.88365C16.3768 4.53646 17.7239 5.64194 18.6716 7.06032C19.6193 8.47869 20.1252 10.1462 20.1252 11.8521C20.1226 14.1388 19.2131 16.3311 17.5962 17.9481C15.9792 19.5651 13.7869 20.4746 11.5002 20.4771V20.4771Z" fill="white"/>
<path d="M15.6441 8.74997L10.5706 13.4008L8.34443 11.1746C8.25603 11.083 8.15028 11.01 8.03336 10.9598C7.91644 10.9096 7.79069 10.8831 7.66344 10.882C7.53619 10.8809 7.41 10.9052 7.29222 10.9533C7.17445 11.0015 7.06745 11.0727 6.97747 11.1627C6.88749 11.2527 6.81633 11.3597 6.76814 11.4774C6.71996 11.5952 6.69571 11.7214 6.69681 11.8486C6.69792 11.9759 6.72436 12.1016 6.77458 12.2186C6.82481 12.3355 6.89781 12.4412 6.98935 12.5296L9.86435 15.4046C10.039 15.5793 10.2743 15.6798 10.5213 15.6852C10.7682 15.6905 11.0077 15.6003 11.1897 15.4334L16.9397 10.1626C17.127 9.99074 17.2384 9.75154 17.2494 9.4976C17.2604 9.24365 17.17 8.99575 16.9982 8.80843C16.8264 8.62111 16.5872 8.50971 16.3332 8.49875C16.0793 8.48779 15.8314 8.57815 15.6441 8.74997V8.74997Z" fill="white"/>
</svg>
